<svg width="301" height="137" viewBox="0 0 301 137" fill="none" xmlns="http://www.w3.org/2000/svg">
<path d="M0.651917 93.4477C0.568493 80.1727 0.500183 57.7825 0.50012 43.6916L0.5 18.0718H24.8072H49.1143V27.2013V36.3309H34.0507H18.9871V45.4604V54.59H34.1648H49.3425V63.6054V72.6209H34.0507H18.7589V95.1024V117.584H9.78124H0.803601L0.651917 93.4477Z" fill="white"/>
<path d="M71.2293 117.895L70.4112 117.789L70.2593 80.788C70.1758 60.4375 70.1074 38.0011 70.1074 30.9294V18.0718H79.2369H88.3663V59.1548V100.238H102.517H116.668V108.878V117.519L115.242 117.668C113.588 117.841 72.4501 118.053 71.2293 117.895Z" fill="white"/>
<path d="M135.164 67.9427V18.3008H162.096H189.028V27.3162V36.3316H171.339H153.651V45.6894V55.0472H171.339H189.028V63.9486V72.8499H171.339H153.651V86.316V99.782H171.339H189.028V108.683V117.585H162.096H135.164V67.9427Z" fill="white"/>
<path d="M190.917 135.786C190.978 135.629 201.16 119.953 213.543 100.949L236.058 66.3974L233.944 63.1756C232.781 61.4036 225.642 50.5619 218.08 39.0829C210.519 27.604 204.355 18.2062 204.383 18.1991C204.411 18.1919 209.21 18.2137 215.047 18.2475L225.66 18.3089L236.045 34.2769C241.756 43.0592 246.481 50.2449 246.543 50.2451C246.606 50.2453 254.104 38.9503 263.205 25.1452L279.752 0.0448974L290.207 0.0429964C298.508 0.0415044 300.628 0.099868 300.496 0.326393C300.404 0.483307 290.696 15.3057 278.923 33.2652C267.149 51.2246 257.453 66.0826 257.377 66.2829C257.284 66.5247 262.473 74.6538 272.81 90.4609C281.375 103.558 288.883 115.02 289.496 115.932L290.61 117.589L280.065 117.529L269.52 117.47L258.165 100.244C251.92 90.7703 246.711 82.9857 246.59 82.9453C246.468 82.9048 238.628 94.8361 229.167 109.459L211.966 136.047L201.385 136.059C193.01 136.069 190.828 136.012 190.917 135.786Z" fill="white"/>
</svg>
